<mxfile host="app.diagrams.net" modified="2020-10-22T12:25:25.264Z" agent="5.0 (Macintosh; Intel Mac OS X 10_15_7) AppleWebKit/537.36 (KHTML, like Gecko) Chrome/86.0.4240.80 Safari/537.36" etag="QEP2emnNxujpGIVomdr2" version="13.8.1" type="github">
  <diagram id="ajXYSN7-S7W42hIpiMkQ" name="Page-1">
    <mxGraphModel dx="872" dy="538" grid="1" gridSize="10" guides="1" tooltips="1" connect="1" arrows="1" fold="1" page="1" pageScale="1" pageWidth="827" pageHeight="1169" math="0" shadow="0">
      <root>
        <mxCell id="0" />
        <mxCell id="1" parent="0" />
        <mxCell id="GOOfpgaUFRhEyDqsh2Lh-9" style="edgeStyle=orthogonalEdgeStyle;rounded=0;orthogonalLoop=1;jettySize=auto;html=1;exitX=0.5;exitY=1;exitDx=0;exitDy=0;entryX=0.5;entryY=0;entryDx=0;entryDy=0;" edge="1" parent="1" source="GOOfpgaUFRhEyDqsh2Lh-1" target="GOOfpgaUFRhEyDqsh2Lh-2">
          <mxGeometry relative="1" as="geometry" />
        </mxCell>
        <mxCell id="GOOfpgaUFRhEyDqsh2Lh-1" value="Cloudflare" style="rounded=0;whiteSpace=wrap;html=1;" vertex="1" parent="1">
          <mxGeometry x="354" y="70" width="120" height="60" as="geometry" />
        </mxCell>
        <mxCell id="GOOfpgaUFRhEyDqsh2Lh-2" value="AWS Load balancer" style="rounded=0;whiteSpace=wrap;html=1;" vertex="1" parent="1">
          <mxGeometry x="354" y="170" width="120" height="60" as="geometry" />
        </mxCell>
        <mxCell id="GOOfpgaUFRhEyDqsh2Lh-3" value="EC2 instance" style="rounded=0;whiteSpace=wrap;html=1;labelPosition=center;verticalLabelPosition=top;align=center;verticalAlign=bottom;" vertex="1" parent="1">
          <mxGeometry x="340" y="290" width="150" height="220" as="geometry" />
        </mxCell>
        <mxCell id="GOOfpgaUFRhEyDqsh2Lh-11" style="edgeStyle=orthogonalEdgeStyle;rounded=0;orthogonalLoop=1;jettySize=auto;html=1;exitX=1;exitY=0.5;exitDx=0;exitDy=0;" edge="1" parent="1" source="GOOfpgaUFRhEyDqsh2Lh-4">
          <mxGeometry relative="1" as="geometry">
            <mxPoint x="520" y="400" as="targetPoint" />
          </mxGeometry>
        </mxCell>
        <mxCell id="GOOfpgaUFRhEyDqsh2Lh-4" value="NGINX proxy" style="rounded=0;whiteSpace=wrap;html=1;" vertex="1" parent="1">
          <mxGeometry x="354" y="300" width="120" height="60" as="geometry" />
        </mxCell>
        <mxCell id="GOOfpgaUFRhEyDqsh2Lh-5" value="app" style="rounded=0;whiteSpace=wrap;html=1;" vertex="1" parent="1">
          <mxGeometry x="354" y="370" width="120" height="60" as="geometry" />
        </mxCell>
        <mxCell id="GOOfpgaUFRhEyDqsh2Lh-6" value="scripts folder" style="rounded=0;whiteSpace=wrap;html=1;" vertex="1" parent="1">
          <mxGeometry x="354" y="440" width="120" height="60" as="geometry" />
        </mxCell>
        <mxCell id="GOOfpgaUFRhEyDqsh2Lh-7" value="All traffic goes into proxy where based on the URL it is redirected to the express app or serves static assets" style="text;html=1;strokeColor=none;fillColor=none;align=center;verticalAlign=middle;whiteSpace=wrap;rounded=0;" vertex="1" parent="1">
          <mxGeometry x="520" y="290" width="140" height="70" as="geometry" />
        </mxCell>
        <mxCell id="GOOfpgaUFRhEyDqsh2Lh-12" value="" style="endArrow=classic;html=1;entryX=1;entryY=0.5;entryDx=0;entryDy=0;rounded=0;" edge="1" parent="1" target="GOOfpgaUFRhEyDqsh2Lh-6">
          <mxGeometry width="50" height="50" relative="1" as="geometry">
            <mxPoint x="520" y="400" as="sourcePoint" />
            <mxPoint x="520" y="480" as="targetPoint" />
            <Array as="points">
              <mxPoint x="520" y="470" />
            </Array>
          </mxGeometry>
        </mxCell>
        <mxCell id="GOOfpgaUFRhEyDqsh2Lh-13" value="" style="endArrow=classic;html=1;" edge="1" parent="1" target="GOOfpgaUFRhEyDqsh2Lh-5">
          <mxGeometry width="50" height="50" relative="1" as="geometry">
            <mxPoint x="520" y="400" as="sourcePoint" />
            <mxPoint x="570" y="350" as="targetPoint" />
          </mxGeometry>
        </mxCell>
        <mxCell id="GOOfpgaUFRhEyDqsh2Lh-10" style="edgeStyle=orthogonalEdgeStyle;rounded=0;orthogonalLoop=1;jettySize=auto;html=1;exitX=0.5;exitY=1;exitDx=0;exitDy=0;entryX=0;entryY=0.5;entryDx=0;entryDy=0;" edge="1" parent="1" source="GOOfpgaUFRhEyDqsh2Lh-2" target="GOOfpgaUFRhEyDqsh2Lh-4">
          <mxGeometry relative="1" as="geometry" />
        </mxCell>
      </root>
    </mxGraphModel>
  </diagram>
</mxfile>
